HIERARCHY
ROOT hip
{
  OFFSET 0 0 0
  CHANNELS 6 Xposition Yposition Zposition Zrotation Yrotation Xrotation
  JOINT abdomen
  {
    OFFSET 0 20.6881 -0.73152
    CHANNELS 3 Zrotation Xrotation Yrotation
    JOINT chest
    {
      OFFSET 0 11.7043 -0.48768
      CHANNELS 3 Zrotation Xrotation Yrotation
      JOINT neck
      {
        OFFSET 0 22.1894 -2.19456
        CHANNELS 3 Zrotation Xrotation Yrotation
        JOINT head
        {
          OFFSET -0.24384 7.07133 1.2192
          CHANNELS 3 Zrotation Xrotation Yrotation
          JOINT leftEye
          {
            OFFSET 4.14528 8.04674 8.04672
            CHANNELS 3 Zrotation Xrotation Yrotation
            End Site
            {
              OFFSET 1 0 0
            }
          }
          JOINT rightEye
          {
            OFFSET -3.6576 8.04674 8.04672
            CHANNELS 3 Zrotation Xrotation Yrotation
            End Site
            {
              OFFSET 1 0 0
            }
          }
        }
      }
      JOINT rCollar
      {
        OFFSET -2.68224 19.2634 -4.8768
        CHANNELS 3 Zrotation Xrotation Yrotation
        JOINT rShldr
        {
          OFFSET -8.77824 -1.95073 1.46304
          CHANNELS 3 Zrotation Xrotation Yrotation
          JOINT rForeArm
          {
            OFFSET -28.1742 -1.7115 0.48768
            CHANNELS 3 Zrotation Xrotation Yrotation
            JOINT rHand
            {
              OFFSET -22.5879 0.773209 7.07136
              CHANNELS 3 Zrotation Xrotation Yrotation
              JOINT rThumb1
              {
                OFFSET -1.2192 -0.487915 3.41376
                CHANNELS 3 Zrotation Xrotation Yrotation
                JOINT rThumb2
                {
                  OFFSET -3.37035 -0.52449 3.41376
                  CHANNELS 3 Zrotation Xrotation Yrotation
                  End Site
                  {
                    OFFSET -1.78271 -1.18214 1.43049
                  }
                }
              }
              JOINT rIndex1
              {
                OFFSET -7.75947 0.938293 5.60832
                CHANNELS 3 Zrotation Xrotation Yrotation
                JOINT rIndex2
                {
                  OFFSET -2.54057 -0.884171 1.56538
                  CHANNELS 3 Zrotation Xrotation Yrotation
                  End Site
                  {
                    OFFSET -1.62519 -0.234802 1.16502
                  }
                }
              }
              JOINT rMid1
              {
                OFFSET -8.24714 1.18213 3.41376
                CHANNELS 3 Zrotation Xrotation Yrotation
                JOINT rMid2
                {
                  OFFSET -3.10165 -0.590103 1.0647
                  CHANNELS 3 Zrotation Xrotation Yrotation
                  End Site
                  {
                    OFFSET -2.48547 -0.328903 0.83742
                  }
                }
              }
              JOINT rRing1
              {
                OFFSET -8.82822 0.546677 1.51678
                CHANNELS 3 Zrotation Xrotation Yrotation
                JOINT rRing2
                {
                  OFFSET -2.60934 -0.819778 -0.0198488
                  CHANNELS 3 Zrotation Xrotation Yrotation
                  End Site
                  {
                    OFFSET -2.33842 -0.294052 0.168128
                  }
                }
              }
              JOINT rPinky1
              {
                OFFSET -8.27202 -0.0477905 -0.4584
                CHANNELS 3 Zrotation Xrotation Yrotation
                JOINT rPinky2
                {
                  OFFSET -1.82734 -0.647385 -0.700984
                  CHANNELS 3 Zrotation Xrotation Yrotation
                  End Site
                  {
                    OFFSET -1.69225 -0.51767 -0.607171
                  }
                }
              }
            }
          }
        }
      }
      JOINT lCollar
      {
        OFFSET 2.68224 19.2634 -4.8768
        CHANNELS 3 Zrotation Xrotation Yrotation
        JOINT lShldr
        {
          OFFSET 8.77824 -1.95073 1.46304
          CHANNELS 3 Zrotation Xrotation Yrotation
          JOINT lForeArm
          {
            OFFSET 28.1742 -1.7115 0.48768
            CHANNELS 3 Zrotation Xrotation Yrotation
            JOINT lHand
            {
              OFFSET 22.5879 0.773209 7.07136
              CHANNELS 3 Zrotation Xrotation Yrotation
              JOINT lThumb1
              {
                OFFSET 1.2192 -0.487915 3.41376
                CHANNELS 3 Zrotation Xrotation Yrotation
                JOINT lThumb2
                {
                  OFFSET 3.37035 -0.52449 3.41376
                  CHANNELS 3 Zrotation Xrotation Yrotation
                  End Site
                  {
                    OFFSET 1.78271 -1.18214 1.43049
                  }
                }
              }
              JOINT lIndex1
              {
                OFFSET 7.75947 0.938293 5.60832
                CHANNELS 3 Zrotation Xrotation Yrotation
                JOINT lIndex2
                {
                  OFFSET 2.54057 -0.884171 1.56538
                  CHANNELS 3 Zrotation Xrotation Yrotation
                  End Site
                  {
                    OFFSET 1.62519 -0.234802 1.16502
                  }
                }
              }
              JOINT lMid1
              {
                OFFSET 8.24714 1.18213 3.41376
                CHANNELS 3 Zrotation Xrotation Yrotation
                JOINT lMid2
                {
                  OFFSET 3.10165 -0.590103 1.0647
                  CHANNELS 3 Zrotation Xrotation Yrotation
                  End Site
                  {
                    OFFSET 2.48547 -0.328903 0.83742
                  }
                }
              }
              JOINT lRing1
              {
                OFFSET 8.82822 0.546677 1.51678
                CHANNELS 3 Zrotation Xrotation Yrotation
                JOINT lRing2
                {
                  OFFSET 2.60934 -0.819778 -0.0198488
                  CHANNELS 3 Zrotation Xrotation Yrotation
                  End Site
                  {
                    OFFSET 2.33842 -0.294052 0.168128
                  }
                }
              }
              JOINT lPinky1
              {
                OFFSET 8.27202 -0.0477905 -0.4584
                CHANNELS 3 Zrotation Xrotation Yrotation
                JOINT lPinky2
                {
                  OFFSET 1.82734 -0.647385 -0.700984
                  CHANNELS 3 Zrotation Xrotation Yrotation
                  End Site
                  {
                    OFFSET 1.69225 -0.51767 -0.607171
                  }
                }
              }
            }
          }
        }
      }
    }
  }
  JOINT rButtock
  {
    OFFSET -8.77824 4.35084 1.2192
    CHANNELS 3 Zrotation Xrotation Yrotation
    JOINT rThigh
    {
      OFFSET 0 -1.70687 -2.19456
      CHANNELS 3 Zrotation Xrotation Yrotation
      JOINT rShin
      {
        OFFSET 0 -36.8199 0.73152
        CHANNELS 3 Zrotation Xrotation Yrotation
        JOINT rFoot
        {
          OFFSET 0.73152 -45.1104 -5.12064
          CHANNELS 3 Zrotation Xrotation Yrotation
          End Site
          {
            OFFSET -1.1221 -3.69964 12.103
          }
        }
      }
    }
  }
  JOINT lButtock
  {
    OFFSET 8.77824 4.35084 1.2192
    CHANNELS 3 Zrotation Xrotation Yrotation
    JOINT lThigh
    {
      OFFSET 0 -1.70687 -2.19456
      CHANNELS 3 Zrotation Xrotation Yrotation
      JOINT lShin
      {
        OFFSET 0 -36.8199 0.73152
        CHANNELS 3 Zrotation Xrotation Yrotation
        JOINT lFoot
        {
          OFFSET -0.73152 -45.1104 -5.12064
          CHANNELS 3 Zrotation Xrotation Yrotation
          End Site
          {
            OFFSET 1.1221 -3.69964 12.103
          }
        }
      }
    }
  }
}
MOTION
Frames:	5
Frame Time:	0.03333
35.638799999999996 64.99239999999999 31.207600000000003 -175.147494 -39.287584 -173.064017 -0.085059 5.837013 -3.749513 1.793985 -11.037443 5.764664 -4.956564 1.477893 -46.709049 11.335127 5.044367 48.485083 -0.002616 0.0 -0.003202 0.002734 0.0 0.00112 -159.221219 -48.725009 170.567469 20.367681 38.286803 -11.403434 24.329027 -59.572243 -120.417662 164.554517 -22.63892 143.726194 -159.652995 2.600965 88.800778 -143.000764 2.13883 70.565282 -124.893302 21.790641 105.250588 7.30474 0.149624 -7.96593 -175.764294 -50.334688 144.099923 -129.098941 51.898545 118.105917 -0.020204 -1.725182 -0.542329 10.424553 0.624625 0.00586 -145.17416 12.067736 -141.822401 -77.951288 -52.810678 -77.533998 157.678387 -66.559247 -175.833221 147.50366 -22.12834 -173.250686 113.989001 -26.788503 -16.359974 -35.518475 -66.035636 -21.573482 -1.842355 -1.827213 0.253149 37.476975 26.772092 -32.685536 -2.326266 -3.867741 1.259075 -87.527568 -60.122357 -35.713393 17.371487 35.631585 -12.955674 167.203891 -17.336189 -144.186085 145.124445 1.121403 179.480518 -11.929435 33.177515 5.240966 80.939562 -51.230298 79.359633 -4.626275 3.283229 -0.001352 0.001352 0.000778 0.000676 -3.187067 -40.221557 -11.937489 39.863675 58.058396 39.151151 178.136493 18.951384 101.063905 -179.974468 75.749382 -0.017469 -146.905547 22.630773 -13.414559 -56.460911 70.518153 -154.148063 -102.961972 -24.360915 175.420413
35.7006 64.94879999999999 30.8777 -174.932453 -38.838628 -173.904997 0.396098 4.511147 -22.926318 4.450229 -9.872044 25.696513 -4.929953 10.750448 -98.564914 12.31916 12.903389 103.707882 -0.000808 -0.0 0.000725 -0.000808 -0.0 0.000725 -158.468048 -30.055591 166.919723 -2.349482 -39.107622 -16.491283 38.991939 14.68556 -156.874842 174.377342 6.008299 148.101108 -0.544274 0.536124 0.08534 -122.337255 -13.776714 109.829763 -162.919492 -37.929365 122.62899 -6.488727 32.296419 0.699512 -160.097734 -4.901295 142.968682 -6.029467 23.204859 5.438319 -72.091004 -72.141339 -89.073093 -150.975438 -0.366293 176.387354 -124.852701 -29.038426 -122.620941 -23.304646 -39.3984 -25.350941 -3.283973 -26.942039 5.276151 163.651684 -5.192356 -150.240617 -178.594371 -60.021692 73.53298 9.492765 15.914278 0.408353 -83.253664 -50.257792 -33.616573 93.01805 38.666398 -55.788469 108.427692 34.160259 -91.742327 -4.141135 4.077471 5.929373 167.33842 -27.889719 -145.263314 7.563062 26.102352 -6.431768 145.113267 -0.627357 178.93158 -10.884836 7.84395 8.048447 26.565778 -38.861042 25.604733 -4.377571 3.259054 -0.652977 6e-06 0.00147 -8e-06 -2.150603 -41.589725 -156.077352 -56.517592 -35.011298 121.057804 162.322668 -20.953068 41.252066 -179.967889 75.750821 -0.026421 -145.336429 20.030719 180.0 21.387457 -70.117528 173.346054 85.285646 18.162798 -6.44468
35.7157 64.6913 30.6124 -175.243099 -38.460388 -174.483635 -2.982991 2.788085 46.971428 -5.328062 -9.081668 -44.846578 14.655614 11.998115 124.811163 -7.347804 15.861104 -115.359224 0.000884 0.0 0.001517 0.0009 -0.0 -0.002153 -150.168753 21.535467 155.275888 -7.085768 25.908046 0.196756 1.66666 28.512975 -136.70485 158.565909 -34.485454 139.785187 -174.193668 -11.857239 89.870284 -133.725212 12.387234 66.843849 -28.902371 31.61512 21.339266 14.470164 -10.085025 -2.368035 -60.454579 59.679685 53.00442 10.082333 -20.319774 -1.393857 -145.122856 1.975278 -179.749144 11.970961 44.879702 -3.834795 -87.576403 -50.206692 -85.929142 -153.803603 36.289963 -147.032328 -0.16294 -0.9901 0.218167 74.794047 57.451738 -78.785941 -9.186355 -49.649803 -116.249278 10.081512 17.298754 0.20825 -83.253956 -50.258761 -33.615614 32.548661 6.763703 7.428632 -23.267586 -41.070821 5.689766 154.46536 -9.545744 -112.129034 0.968391 2.779741 -0.55342 163.521381 -5.557102 -143.433763 145.119834 0.184965 179.187467 66.988813 87.684457 -80.240735 124.851471 -29.038188 122.621038 147.555717 14.095797 142.593116 -179.725751 75.748591 -0.211374 177.169522 34.499306 169.182174 -29.975813 -60.961411 -174.113677 -59.322662 30.0416 -33.938291 -179.985019 75.75083 -0.013219 -143.914823 21.84738 0.0 9.748571 77.978324 69.28482 -118.721638 51.26761 21.826825
35.6767 64.3653 30.4241 -175.811076 -38.197829 -175.172131 -1.841922 2.719937 0.01075 1.646565 -10.808788 2.848977 -3.715676 8.262925 -76.763316 12.445111 6.308937 89.056946 -0.002863 0.0 -0.001011 -0.002863 0.0 -0.001011 -0.048925 0.292292 0.066014 -134.244074 33.795138 145.943816 -165.400779 -72.344026 -66.007355 -7.535125 34.573938 2.575439 -0.44145 0.435413 0.068365 -19.326416 17.874148 17.10458 5.693148 -9.761164 -2.869261 -165.372376 -20.755959 109.840816 -170.282839 -36.72306 145.340236 -42.548235 58.282917 36.537933 -145.11968 0.268178 -179.211587 -148.138233 -43.031717 -170.6042 0.465042 1.226671 0.427598 -24.263547 -41.351283 -24.922332 155.548463 -3.80403 -161.900656 28.023721 -71.20439 52.236619 21.717604 -74.076416 -87.066691 5.7565 4.568213 1.554829 -71.830911 -48.263924 -25.791818 135.035304 16.494876 -103.136481 145.338467 -6.264873 -118.676999 -95.414117 -70.513129 -43.379845 -14.567088 -44.053007 2.82585 -80.576113 -77.949068 -52.25827 -0.001091 0.06389 -0.019709 -11.105337 -13.792377 1.713681 161.705877 70.564332 151.024852 -55.935874 83.107301 19.375444 -179.988459 75.750453 -0.007897 177.154897 35.127108 -180.0 -50.442935 -54.791762 -166.071002 -32.094469 3.114602 -82.987545 179.989671 75.749886 0.007067 -142.031473 20.675064 -107.116111 -82.186716 -26.95494 1.732339 73.824066 -64.989606 152.673378
35.666 64.11829999999999 30.1964 -175.775284 -37.944929 -176.220744 -1.487751 -2.642506 -180.0 -1.60668 6.241775 -177.011613 9.263842 -0.92734 23.952474 -4.410527 0.954682 -7.928659 0.003837 -0.0 -0.000115 -0.001488 -0.0 0.005122 -159.222586 -48.725126 170.56648 92.619138 84.96913 -76.748706 128.896109 -6.245198 -5.041948 -175.854122 35.974215 147.523779 148.869604 -40.125759 77.648539 -21.206697 -47.058266 -18.892567 -83.732491 42.329218 69.989975 -150.390895 12.668664 110.880224 -89.835092 60.701795 81.262839 -172.002742 -31.385164 143.874691 -75.944557 -72.111559 -93.113221 -71.829411 -82.289847 -97.842442 -124.850341 -29.038322 -122.621584 -43.654775 -49.72622 -44.908721 -3.191963 -25.838809 5.075271 -69.38454 -55.129816 -63.318286 -83.587861 -59.123118 76.526221 171.264267 24.77697 -140.661158 5.433194 5.265158 -1.077795 -20.009785 -26.874842 9.951574 -23.267202 -41.070925 5.689291 -11.580941 6.207763 1.478805 125.643881 49.840238 -115.274667 85.802595 63.974021 -77.831894 145.121273 0.268384 179.211154 -11.579739 58.796332 1.665155 86.000532 -50.496397 84.370787 93.5915 -50.9074 93.826515 -179.982386 75.749609 -0.014492 177.346853 35.982634 -175.490418 -49.769793 -63.954155 32.442596 82.332724 48.490145 27.957229 179.995037 75.750192 0.005121 -144.557329 21.895115 117.650345 85.318448 -18.522738 159.840474 -42.82965 76.25543 142.587019
